<svg width="219" height="181" viewBox="0 0 219 181" fill="none" xmlns="http://www.w3.org/2000/svg">
<g filter="url(#filter0_d_2_88)">
<path d="M185.214 83.1705C185.214 124.178 151.971 157.421 110.964 157.421C69.9571 157.421 36.7142 124.178 36.7142 83.1705C36.7142 42.1633 69.9571 8.92047 110.964 8.92047C151.971 8.92047 185.214 42.1633 185.214 83.1705Z" fill="#FCDC36"/>
<path d="M21.4156 87.9205H205.75L194.334 132.92H10L21.4156 87.9205Z" fill="#273204"/>
<path d="M23.6656 85.6705H208L196.584 130.671H12.25L23.6656 85.6705Z" fill="#FCC436"/>
<path fill-rule="evenodd" clip-rule="evenodd" d="M112.856 31.631V40.6179H109.861V31.631H112.856Z" fill="#273204"/>
<path fill-rule="evenodd" clip-rule="evenodd" d="M154.795 81.0588C154.795 57.0695 135.348 37.6223 111.359 37.6223C87.3692 37.6223 67.922 57.0695 67.922 81.0588H154.795Z" fill="#273204"/>
<path fill-rule="evenodd" clip-rule="evenodd" d="M77.8282 64.3716C83.9621 52.0694 96.6714 43.6136 111.358 43.6136C112.186 43.6136 112.856 44.2841 112.856 45.1114C112.856 45.9386 112.186 46.6092 111.358 46.6092C97.8506 46.6092 86.1558 54.3833 80.5091 65.7083C80.14 66.4486 79.2406 66.7495 78.5003 66.3803C77.76 66.0112 77.4591 65.1119 77.8282 64.3716Z" fill="#273204"/>
<path d="M155.544 81.0588H67.1731C65.1051 81.0588 63.4286 82.7353 63.4286 84.8034C63.4286 86.8714 65.1051 88.5479 67.1731 88.5479H155.544C157.612 88.5479 159.288 86.8714 159.288 84.8034C159.288 82.7353 157.612 81.0588 155.544 81.0588Z" fill="#8AAB24"/>
<path fill-rule="evenodd" clip-rule="evenodd" d="M105.367 30.1332H117.35V34.6266H105.367V30.1332Z" fill="#273204"/>
<path fill-rule="evenodd" clip-rule="evenodd" d="M131.65 0.170471C125.789 0.170471 121.038 3.70832 121.038 10.889C121.038 18.0697 137.06 34.2176 139.764 34.2176C142.469 34.2176 158.49 18.0697 158.49 10.889C158.49 3.70832 153.739 0.170471 147.879 0.170471C144.624 0.170471 141.711 1.65102 139.764 3.98184C137.818 1.65102 134.905 0.170471 131.65 0.170471Z" fill="#8AAB24"/>
<path fill-rule="evenodd" clip-rule="evenodd" d="M126.197 6.86606C127.644 4.79785 130.091 3.58267 132.546 3.58267C133.486 3.58267 134.248 4.34484 134.248 5.28503C134.248 6.22521 133.486 6.98738 132.546 6.98738C131.165 6.98738 129.776 7.69016 128.986 8.81853C128.252 9.86655 127.933 11.4324 128.954 13.4741C129.375 14.3151 129.034 15.3376 128.193 15.7581C127.352 16.1786 126.329 15.8377 125.909 14.9968C124.373 11.924 124.693 9.01462 126.197 6.86606Z" fill="#273204"/>
<path d="M45.29 107.61C45.29 108.25 45.1667 108.9 44.92 109.56C44.68 110.22 44.3133 110.827 43.82 111.38C43.3333 111.933 42.7133 112.383 41.96 112.73C41.2133 113.07 40.3267 113.24 39.3 113.24C37.9333 113.24 36.7667 112.917 35.8 112.27C34.8333 111.617 34.0933 110.717 33.58 109.57C33.0733 108.423 32.82 107.107 32.82 105.62C32.82 104.133 33.0733 102.82 33.58 101.68C34.0933 100.54 34.8333 99.6467 35.8 99C36.7667 98.3533 37.9333 98.03 39.3 98.03C40.44 98.03 41.41 98.2367 42.21 98.65C43.0167 99.0633 43.66 99.6 44.14 100.26C44.6267 100.92 44.9567 101.617 45.13 102.35C45.2367 102.797 45.29 103.227 45.29 103.64H42.18C42.18 103.44 42.1633 103.247 42.13 103.06C42.0633 102.573 41.91 102.14 41.67 101.76C41.43 101.38 41.11 101.08 40.71 100.86C40.3167 100.633 39.8467 100.52 39.3 100.52C38.66 100.52 38.09 100.703 37.59 101.07C37.09 101.437 36.6967 101.997 36.41 102.75C36.1233 103.503 35.98 104.46 35.98 105.62C35.98 106.787 36.1233 107.75 36.41 108.51C36.6967 109.263 37.09 109.827 37.59 110.2C38.09 110.567 38.66 110.75 39.3 110.75C39.76 110.75 40.1667 110.667 40.52 110.5C40.88 110.333 41.18 110.103 41.42 109.81C41.6667 109.517 41.8533 109.18 41.98 108.8C42.1133 108.42 42.18 108.023 42.18 107.61H45.29ZM58.8816 98.25V113H55.7716V105.92L57.1716 106.86H49.0316L50.4316 105.96V113H47.3216V98.25H50.4316V105.38L49.0316 104.45H57.1716L55.7716 105.38V98.25H58.8816ZM63.0455 100.65L64.4455 99.17V105.28L63.7455 104.4H69.1855V106.8H63.7455L64.4455 105.92V112.08L63.0455 110.6H70.2955V113H61.3255V98.25H70.2955V100.65H63.0455ZM74.4317 100.65L75.8317 99.17V105.38L74.8717 104.6H80.9017V107H74.8717L75.8317 106.16V113H72.7317V98.25H81.7917V100.65H74.4317ZM85.6627 100.65L87.0627 99.17V105.28L86.3627 104.4H91.8027V106.8H86.3627L87.0627 105.92V112.08L85.6627 110.6H92.9127V113H83.9427V98.25H92.9127V100.65H85.6627ZM100.349 113V98.25H105.119C106.106 98.25 107.002 98.43 107.809 98.79C108.622 99.1433 109.319 99.6467 109.899 100.3C110.486 100.947 110.936 101.72 111.249 102.62C111.562 103.52 111.719 104.513 111.719 105.6C111.719 106.687 111.562 107.683 111.249 108.59C110.936 109.497 110.486 110.28 109.899 110.94C109.319 111.593 108.622 112.1 107.809 112.46C107.002 112.82 106.106 113 105.119 113H100.349ZM103.469 112.08L102.069 110.6H104.719C105.439 110.6 106.089 110.4 106.669 110C107.256 109.593 107.719 109.017 108.059 108.27C108.399 107.517 108.569 106.627 108.569 105.6C108.569 104.567 108.399 103.683 108.059 102.95C107.719 102.21 107.256 101.643 106.669 101.25C106.089 100.85 105.439 100.65 104.719 100.65H102.069L103.469 99.17V112.08ZM115.487 100.65L116.887 99.17V105.28L116.187 104.4H121.627V106.8H116.187L116.887 105.92V112.08L115.487 110.6H122.737V113H113.767V98.25H122.737V100.65H115.487ZM136.003 98.25C137.036 98.25 137.883 98.3933 138.543 98.68C139.21 98.9667 139.703 99.38 140.023 99.92C140.343 100.453 140.503 101.083 140.503 101.81C140.503 102.537 140.36 103.157 140.073 103.67C139.786 104.177 139.423 104.57 138.983 104.85C138.543 105.123 138.096 105.277 137.643 105.31C138.116 105.323 138.603 105.447 139.103 105.68C139.603 105.907 140.023 106.277 140.363 106.79C140.703 107.297 140.873 107.973 140.873 108.82C140.873 109.62 140.71 110.337 140.383 110.97C140.063 111.597 139.546 112.093 138.833 112.46C138.12 112.82 137.166 113 135.973 113H130.173V98.25H136.003ZM133.143 105.08L132.113 104.21H135.053C135.84 104.21 136.43 104.043 136.823 103.71C137.216 103.37 137.413 102.913 137.413 102.34C137.413 101.953 137.33 101.637 137.163 101.39C136.996 101.137 136.75 100.95 136.423 100.83C136.096 100.71 135.693 100.65 135.213 100.65H131.743L133.143 99.17V105.08ZM135.373 110.59C136.133 110.59 136.71 110.417 137.103 110.07C137.503 109.717 137.703 109.24 137.703 108.64C137.703 108.3 137.643 108.003 137.523 107.75C137.41 107.497 137.246 107.287 137.033 107.12C136.82 106.947 136.56 106.817 136.253 106.73C135.953 106.637 135.62 106.59 135.253 106.59H132.113L133.143 105.73V112.07L131.743 110.59H135.373ZM149.226 113.24C148.306 113.24 147.446 113.073 146.646 112.74C145.846 112.407 145.142 111.917 144.536 111.27C143.929 110.623 143.452 109.827 143.106 108.88C142.759 107.927 142.586 106.837 142.586 105.61C142.586 104.377 142.756 103.29 143.096 102.35C143.442 101.403 143.919 100.61 144.526 99.97C145.132 99.33 145.836 98.8467 146.636 98.52C147.436 98.1933 148.299 98.03 149.226 98.03C150.146 98.03 151.006 98.1933 151.806 98.52C152.612 98.8467 153.319 99.33 153.926 99.97C154.532 100.61 155.006 101.403 155.346 102.35C155.686 103.29 155.856 104.377 155.856 105.61C155.856 106.837 155.682 107.927 155.336 108.88C154.996 109.827 154.519 110.623 153.906 111.27C153.299 111.917 152.592 112.407 151.786 112.74C150.986 113.073 150.132 113.24 149.226 113.24ZM149.226 110.75C149.846 110.75 150.419 110.58 150.946 110.24C151.479 109.9 151.906 109.353 152.226 108.6C152.546 107.84 152.706 106.843 152.706 105.61C152.706 104.37 152.542 103.377 152.216 102.63C151.896 101.883 151.472 101.347 150.946 101.02C150.419 100.687 149.846 100.52 149.226 100.52C148.606 100.52 148.029 100.687 147.496 101.02C146.969 101.347 146.546 101.883 146.226 102.63C145.906 103.377 145.746 104.37 145.746 105.61C145.746 106.85 145.906 107.847 146.226 108.6C146.546 109.353 146.969 109.9 147.496 110.24C148.029 110.58 148.606 110.75 149.226 110.75ZM157.908 113V98.25H161.018V112.07L159.618 110.47H166.508V113H157.908ZM173.454 113.24C172.388 113.24 171.448 113.07 170.634 112.73C169.828 112.39 169.194 111.883 168.734 111.21C168.281 110.53 168.054 109.687 168.054 108.68C168.054 108.573 168.054 108.477 168.054 108.39C168.054 108.297 168.054 108.197 168.054 108.09H171.164C171.164 108.19 171.164 108.28 171.164 108.36C171.164 108.433 171.164 108.52 171.164 108.62C171.164 109.307 171.358 109.833 171.744 110.2C172.131 110.567 172.704 110.75 173.464 110.75C174.231 110.75 174.821 110.63 175.234 110.39C175.648 110.143 175.854 109.74 175.854 109.18C175.854 108.787 175.698 108.44 175.384 108.14C175.078 107.84 174.658 107.573 174.124 107.34C173.598 107.1 172.994 106.877 172.314 106.67C171.574 106.437 170.888 106.13 170.254 105.75C169.621 105.37 169.111 104.887 168.724 104.3C168.344 103.713 168.154 102.99 168.154 102.13C168.154 101.263 168.384 100.527 168.844 99.92C169.304 99.3067 169.931 98.84 170.724 98.52C171.518 98.1933 172.414 98.03 173.414 98.03C174.461 98.03 175.384 98.1933 176.184 98.52C176.991 98.84 177.621 99.3233 178.074 99.97C178.534 100.61 178.764 101.41 178.764 102.37C178.764 102.477 178.764 102.577 178.764 102.67C178.764 102.757 178.764 102.857 178.764 102.97H175.664C175.664 102.897 175.664 102.82 175.664 102.74C175.664 102.66 175.664 102.583 175.664 102.51C175.664 101.863 175.484 101.367 175.124 101.02C174.771 100.673 174.214 100.5 173.454 100.5C172.721 100.5 172.151 100.633 171.744 100.9C171.344 101.167 171.144 101.577 171.144 102.13C171.144 102.53 171.288 102.87 171.574 103.15C171.868 103.43 172.268 103.68 172.774 103.9C173.281 104.12 173.858 104.34 174.504 104.56C175.384 104.867 176.151 105.207 176.804 105.58C177.464 105.947 177.974 106.41 178.334 106.97C178.694 107.523 178.874 108.23 178.874 109.09C178.874 109.97 178.648 110.72 178.194 111.34C177.741 111.96 177.104 112.433 176.284 112.76C175.471 113.08 174.528 113.24 173.454 113.24ZM187.155 113.24C186.235 113.24 185.375 113.073 184.575 112.74C183.775 112.407 183.072 111.917 182.465 111.27C181.859 110.623 181.382 109.827 181.035 108.88C180.689 107.927 180.515 106.837 180.515 105.61C180.515 104.377 180.685 103.29 181.025 102.35C181.372 101.403 181.849 100.61 182.455 99.97C183.062 99.33 183.765 98.8467 184.565 98.52C185.365 98.1933 186.229 98.03 187.155 98.03C188.075 98.03 188.935 98.1933 189.735 98.52C190.542 98.8467 191.249 99.33 191.855 99.97C192.462 100.61 192.935 101.403 193.275 102.35C193.615 103.29 193.785 104.377 193.785 105.61C193.785 106.837 193.612 107.927 193.265 108.88C192.925 109.827 192.449 110.623 191.835 111.27C191.229 111.917 190.522 112.407 189.715 112.74C188.915 113.073 188.062 113.24 187.155 113.24ZM187.155 110.75C187.775 110.75 188.349 110.58 188.875 110.24C189.409 109.9 189.835 109.353 190.155 108.6C190.475 107.84 190.635 106.843 190.635 105.61C190.635 104.37 190.472 103.377 190.145 102.63C189.825 101.883 189.402 101.347 188.875 101.02C188.349 100.687 187.775 100.52 187.155 100.52C186.535 100.52 185.959 100.687 185.425 101.02C184.899 101.347 184.475 101.883 184.155 102.63C183.835 103.377 183.675 104.37 183.675 105.61C183.675 106.85 183.835 107.847 184.155 108.6C184.475 109.353 184.899 109.9 185.425 110.24C185.959 110.58 186.535 110.75 187.155 110.75Z" fill="#273204"/>
</g>
<defs>
<filter id="filter0_d_2_88" x="0.571428" y="0.170471" width="218.429" height="180.821" filterUnits="userSpaceOnUse" color-interpolation-filters="sRGB">
<feFlood flood-opacity="0" result="BackgroundImageFix"/>
<feColorMatrix in="SourceAlpha" type="matrix" values="0 0 0 0 0 0 0 0 0 0 0 0 0 0 0 0 0 0 127 0" result="hardAlpha"/>
<feOffset dx="0.785714" dy="13.3571"/>
<feGaussianBlur stdDeviation="5.10714"/>
<feComposite in2="hardAlpha" operator="out"/>
<feColorMatrix type="matrix" values="0 0 0 0 0.128867 0 0 0 0 0.0722222 0 0 0 0 0.216667 0 0 0 0.2 0"/>
<feBlend mode="normal" in2="BackgroundImageFix" result="effect1_dropShadow_2_88"/>
<feBlend mode="normal" in="SourceGraphic" in2="effect1_dropShadow_2_88" result="shape"/>
</filter>
</defs>
</svg>
